<svg id="Layer_1" data-name="Layer 1" xmlns="http://www.w3.org/2000/svg" viewBox="0 0 2304.6 991.63"><defs><style>.cls-1{fill:#d2d2d2;}.cls-2{fill:#4db848;}.cls-3{fill:#c4e3f7;}.cls-4{fill:#9fd3f2;}.cls-5{fill:#77c4ee;}.cls-6{fill:#6d6e71;}.cls-7{fill:#1bb1e7;}</style></defs><title>logo</title><path class="cls-1" d="M2616.77,1837.3a993.26,993.26,0,0,1-94.92,31.46c-38.88,11-78.11,20.61-117.78,28.22-37.72,7.24-75.46,14.45-113.39,20.51-36.45,5.82-73.1,10.46-109.74,15-30.11,3.77-60.31,6.88-90.51,9.93-19.09,1.93-38.24,3.24-57.37,4.8-21.78,1.78-43.56,3.65-65.35,5.26-15.75,1.16-31.52,2.09-47.29,2.91-21.36,1.1-42.74,2-64.11,3-12.63.55-25.27,1.06-37.91,1.44q-27.73.85-55.47,1.47c-12.9.28-25.8.57-38.7.49q-88.44-.58-176.87-1.43c-18-.18-36-.82-54-1.47q-35-1.27-70-2.91c-17.72-.83-35.43-1.87-53.14-2.92-14.79-.88-29.58-1.82-44.36-2.92-25.43-1.9-50.86-3.83-76.28-6-17.43-1.45-34.87-2.87-52.23-5-40.74-4.92-81.49-9.86-122.14-15.51Q1026.5,1917,978,1908.39c-49.09-8.76-97.87-19-146.11-31.8-46.4-12.27-92.2-26.36-136.42-45.17-26.95-11.46-53.06-24.54-76.75-42-15.79-11.61-30.13-24.7-39.56-42.28a61.13,61.13,0,0,1-6.06-43.14c3.21-14.8,11.52-26.67,21.6-37.48,17.49-18.79,38.83-32.32,61.26-44.29,7.86-4.2,15.89-8.09,24.3-12.36v0q.14-1.39.33-2.76c-1.16-2.82-2.23-5.7-3.18-8.64q-1.07-2.23-2.06-4.5l-1.07-.24c.07.58.11,1.18.21,1.82-1.69.69-3,1.27-4.33,1.75-13.75,4.92-27.62,9.52-41.24,14.78-35.73,13.81-70.55,29.53-101.7,52.25-15.84,11.55-30.19,24.68-39.58,42.33-8.4,15.8-10.6,32.05-4.06,49.19,4.16,10.9,10.56,20.23,18.37,28.71,14.34,15.56,31.33,27.7,49.51,38.3,33.15,19.35,68.46,33.86,104.64,46.3,77.28,26.58,156.72,44.68,237.06,58.89,40.67,7.19,81.53,13.41,122.43,19.12,38.47,5.38,77.09,9.77,115.7,14.11,25.82,2.9,51.71,5.16,77.6,7.32,26.63,2.22,53.28,4.05,79.94,5.91,16.24,1.13,32.49,2.07,48.75,2.92q31,1.62,61.92,2.94c13.36.59,26.73,1.14,40.11,1.44,26.29.6,52.58,1,78.87,1.52,2.19,0,4.4-.08,6.57.15.74.08,1.4,1,2.1,1.51h146.28c1.67-.55,3.32-1.53,5-1.59,12.89-.44,25.78-.69,38.67-1,17.76-.47,35.52-.92,53.27-1.47q19-.59,37.91-1.45c20.64-.92,41.29-1.85,61.92-2.93q24-1.26,48-2.92c26.17-1.85,52.33-3.74,78.48-5.87,21.3-1.74,42.59-3.62,63.84-5.85q45.65-4.79,91.23-10.21c52.14-6.17,104-14.24,155.66-23.54,63-11.33,125.45-25.09,186.92-43,40-11.67,79.31-25.26,117.18-42.76,3.69-1.71,7.26-3.68,10.89-5.53A8.51,8.51,0,0,0,2616.77,1837.3Z" transform="translate(-317.87 -993.43)"/><path class="cls-2" d="M1002.27,1219.67a31.18,31.18,0,0,0-.69-7.25c-1.36-5.18-4.94-6.84-9.32-3.85a38,38,0,0,0-9.47,9c-6.65,9.31-13.6,18.55-18.94,28.61-20.33,38.29-40.06,76.9-60,115.39-21.08,40.65-41.91,81.44-63.37,121.9-9.59,18.08-20.43,35.51-33.54,51.34A121.17,121.17,0,0,1,793,1548.7c-6.2,5.39-13.37,5.81-20.32,1.58-4.75-2.89-9.62-6-13.34-10.08-7.89-8.59-16-17.22-22.33-27-13.6-21.06-26.84-42.43-38.89-64.41-28.46-51.94-52.78-106-78.1-159.45-11.36-24-23.13-47.8-35.08-71.51a148.11,148.11,0,0,0-12.76-20.41c-4.48-6.15-10.47-5.24-13.27,1.82A33.53,33.53,0,0,0,557.1,1210c-.73,16,3.11,31.45,7,46.8C573.41,1293.88,586,1330,598,1366.29c24.73,74.74,47.9,150,75.27,223.86l.68,1.84a19.46,19.46,0,0,1,.59,3.62,37.11,37.11,0,0,1,1.46,3.81c.6,1.38,1.17,2.78,1.74,4.16s.88,3.08,1.51,4.46a9.23,9.23,0,0,1,.43.91l.43,1.06.19-.1c1.28,3.14,2.19,5.35,3.08,7.57,12.55,31.44,24.8,63,37.75,94.27,10.54,25.44,22,50.51,36.61,73.93a128.61,128.61,0,0,0,15.51,20.22c6.64,7,11,6.63,16.85-.91A162.31,162.31,0,0,0,803,1785.55c17.49-30.77,31.68-63.13,45.49-95.65,41-96.45,77.27-194.65,109.87-294.22,13.94-42.59,27.18-85.4,37.14-129.13C999,1251.13,1002.59,1235.66,1002.27,1219.67Z" transform="translate(-317.87 -993.43)"/><path class="cls-2" d="M2095.49,1402c1.92-1.1,3.43-1.89,4.86-2.8,18.25-11.66,37.94-14.33,58.9-9.66a91.39,91.39,0,0,1,50.1,29.56,67.53,67.53,0,0,1,17.15,44c.32,13.4.17,26.81.18,40.21,0,33.15-.31,66.3.15,99.44.2,14.51-6.37,23.59-19.22,28.68-16.22,6.42-32.37,6.08-48.09-1.82-10.31-5.18-15.38-13.34-15.32-25.21.23-45.09.06-90.18.12-135.27,0-6.86-1.25-13.06-7.68-18-3.44,2.32-6.9,4.89-10.58,7.09a176.85,176.85,0,0,1-16.55,9.24c-9.07,4.18-18.54,4.37-27.61.09-6.36-3-12.34-6.79-18.41-10.38-2.92-1.73-5.64-3.81-8.7-5.91-5.76,3.3-7.42,8.73-8,14.64-.3,3.39-.08,6.82-.08,10.23q0,43.87,0,87.74v8.28c4.6.59,8.67.94,12.67,1.67a83.14,83.14,0,0,1,11.31,2.75c20.76,6.9,21.14,32.74,10.16,43.89-6.86,7-15.16,11.1-24.57,11.59-19.69,1-39.45,2-59.08-.94a52.23,52.23,0,0,1-12.57-3.67c-12.36-5.26-18.84-14.93-20-28.21-.22-2.42-.16-4.87-.16-7.31,0-41.19.18-82.38-.07-123.57-.16-26.76,10.89-47.54,32.34-62.92,19.34-13.87,40.91-20.07,64.77-17.41,9.61,1.07,18.34,4.72,26.65,9.48C2090.49,1398.87,2092.74,1400.32,2095.49,1402Z" transform="translate(-317.87 -993.43)"/><path class="cls-2" d="M2404.75,1639.17c-26.92-.23-52.95-4.34-77.6-15.52-12.53-5.68-24-13-33.6-23-8.19-8.44-13.64-18.24-15.13-30.13-1.26-10.09,1.9-18.25,9.84-24.47,13.24-10.38,28.53-12,44.41-9.35,17.32,2.88,24.81,10.53,28.18,27.87.92,4.75,3.43,8.21,7.59,10.06a54,54,0,0,0,13.14,4.16c18,2.87,36,3.22,53.33-3.32a41.18,41.18,0,0,0,12.55-7.17c8.16-7.16,7.23-16-1.93-21.79-9.44-6-20.15-8.55-30.93-10.56-16.75-3.12-33.61-5.64-50.35-8.79-15.1-2.84-30-6.71-44-13.24a113.85,113.85,0,0,1-15.93-8.86c-29-19.76-25.82-52.84-13.31-71.64,6.06-9.11,14.1-16.11,23.23-21.91a153,153,0,0,1,72.2-23.48c27.66-2,55-.24,81.78,7.59,21.06,6.16,39.46,16.59,52.72,34.74,9.72,13.3,7.74,27.18-5.48,37-12.2,9.08-26,11.93-40.83,9.63-9.72-1.51-18.26-6.05-24.19-13.88-7.33-9.69-17.1-14.3-28.57-15.77-13.33-1.7-26.76-2.08-40,.83a27.56,27.56,0,0,0-10.48,4.74c-4.47,3.4-4.23,8.52.51,11.53a39.56,39.56,0,0,0,12.62,5.51c13.32,2.81,26.72,5.35,40.18,7.3,19.06,2.77,38.13,5.45,56.34,11.91a165.35,165.35,0,0,1,25.27,11.32c36.21,20.23,38,63.06,20.92,89.39-9.57,14.76-22.91,25.07-38.62,32.54-16.45,7.82-33.9,12.17-51.88,14.27C2426.15,1638,2415.43,1638.39,2404.75,1639.17Z" transform="translate(-317.87 -993.43)"/><path class="cls-2" d="M1414.45,1387c23.71,1,47.19,3.11,69.65,11.49,18,6.7,33.48,16.76,44.76,32.66,9.08,12.8,7.21,26.48-5.35,35.91-13.47,10.11-28.58,13-45,9.15a35.54,35.54,0,0,1-20.65-13c-7.12-9.44-16.58-14.07-27.86-15.61-13.59-1.86-27.2-2.09-40.7.64a26.92,26.92,0,0,0-8.77,3.41c-6.39,4-6.4,10,0,13.81A38,38,0,0,0,1392,1470c13.34,2.72,26.72,5.31,40.19,7.27,19.05,2.77,38.14,5.41,56.33,11.93a150.59,150.59,0,0,1,26.5,12.1c29.43,17.6,38.86,54.92,21.88,84.85-10.7,18.86-27.25,30.85-46.88,39-21.2,8.75-43.47,12.41-66.25,13.32-26.74,1.06-53.06-1.07-78.43-10.4-14.77-5.43-28.45-12.73-40.2-23.34-9.05-8.17-16-17.69-18.62-29.87-3.1-14.2.86-24.29,13.41-31.68,16.48-9.7,33.88-9.81,51.33-3a24.91,24.91,0,0,1,16.27,20.93c1.15,9.18,6.09,14.15,14.42,16.13,20.77,4.95,41.51,5.38,61.81-2.18a35.39,35.39,0,0,0,11.64-7.26c7.27-6.87,6.51-15.71-2-20.77a66.13,66.13,0,0,0-18.75-7.83c-15.65-3.53-31.51-6.15-47.31-9-19.2-3.44-38.35-7.07-56.37-14.83a124.49,124.49,0,0,1-18.66-9.92c-29.66-19.32-26.72-54.83-12.53-73.89a80.24,80.24,0,0,1,21.4-19.68,153.4,153.4,0,0,1,69.19-23.5C1398.38,1387.61,1406.43,1387.41,1414.45,1387Z" transform="translate(-317.87 -993.43)"/><path class="cls-2" d="M1612.29,1560.61c0-3.22,0-5.9,0-8.57,0-43.63.18-87.26-.11-130.89-.09-13.07,5.45-21.86,17-27.21,15.95-7.38,32-7.42,48.09-.41,11.95,5.21,17.86,14.1,17.77,27.47-.25,38.75.36,77.52-.28,116.27-.28,17.14,7.58,28.15,21.69,35.83a65.09,65.09,0,0,0,43.12,7.24c19.81-3.4,30.3-14.81,32.17-34.9.41-4.36.41-8.76.41-13.15,0-37.29.2-74.59-.1-111.88-.1-12.18,5-20.65,15.6-25.81,17.85-8.68,35.74-8.52,53.26,1,9.09,4.94,13.64,12.61,13.6,23.26-.15,41.68.17,83.36-.13,125-.25,34.86-15.27,61.31-46.36,78a116.31,116.31,0,0,1-32.86,11.91c-34.8,6.77-68.87,5.33-101.37-10.34-3.93-1.89-6.19-.28-9.21,1.46-26.06,15-52.76,15.45-79.63,2.52a54.87,54.87,0,0,1-14-10.35c-12.63-12.33-12.66-30.66,0-43,4.12-4,9.39-6.86,14.25-10.06A64.41,64.41,0,0,1,1612.29,1560.61Z" transform="translate(-317.87 -993.43)"/><path class="cls-2" d="M1104.81,1386.31c24.68,1.37,48.79,4.53,71.17,15.31,44.24,21.32,67.3,56.73,69.16,105.87.77,20.23-1.82,39.88-10.19,58.49-13.41,29.78-35.9,50.45-66.17,61.54-43.45,15.92-87.33,15.72-130.67-1.17-16.25-6.34-30.9-15.52-43-28.29-7.33-7.71-12.86-16.49-15.58-26.89-3.56-13.59-.08-23.33,11.83-30.78,15.73-9.85,32.55-10.76,49.76-4.46,9,3.31,15,10.2,17.72,19.22,2.56,8.38,7.94,13.83,15.34,17.63,19.26,9.9,39,10,58.45,1.18,13.58-6.16,20.93-17.95,24.52-32a114.17,114.17,0,0,0,.14-57.12c-6.08-24-22.52-37.07-47.15-38.4-11.84-.64-23.34.32-34.13,5.85-8.34,4.27-14.72,9.86-17.34,19.48a27.19,27.19,0,0,1-16.43,18.54c-16.21,6.56-32.44,6.38-47.88-2.24-15-8.39-19.28-20.17-13.87-36.44,3.54-10.66,9.91-19.5,18.08-27.06,18.94-17.52,41.53-28.05,66.53-33.13C1078.11,1388.82,1091.54,1388,1104.81,1386.31Z" transform="translate(-317.87 -993.43)"/><path class="cls-3" d="M595.65,1085.8c-.54,51.87-41.35,91.87-90.77,93-50.65,1.14-94.8-38.29-94.78-92.37,0-52.19,38.93-91.74,90.5-93C554.83,992.18,594.63,1034.72,595.65,1085.8Z" transform="translate(-317.87 -993.43)"/><path class="cls-4" d="M393.25,1349.16c-41.18-.58-76.23-32.59-75.36-76.9s36.4-75.47,78.79-74.12c39.49,1.26,73.41,34.16,72.88,77.17C469,1315.67,434.07,1349.6,393.25,1349.16Z" transform="translate(-317.87 -993.43)"/><path class="cls-2" d="M715.54,1304.84a64.13,64.13,0,1,1,128.26,0c-.08,35.25-29.22,64.05-64.6,63.85A64,64,0,0,1,715.54,1304.84Z" transform="translate(-317.87 -993.43)"/><path class="cls-2" d="M1771.88,1363.48c-30.44,0-60.89.09-91.33-.09a62.93,62.93,0,0,1-15.85-2c-11.16-3-17.17-11.84-17.29-24.16-.12-12,5.5-20.63,16.43-24a55.13,55.13,0,0,1,15.77-2.43q92.79-.24,185.58-.05A56.55,56.55,0,0,1,1876,1312c14.88,3,21.95,12.35,21,27.63-.71,11.39-6.9,19.34-18,22a65.9,65.9,0,0,1-15.16,1.75C1833.25,1363.56,1802.57,1363.48,1771.88,1363.48Z" transform="translate(-317.87 -993.43)"/><path class="cls-5" d="M458.71,1488.35c-28.19.83-52.63-22.4-52.86-51.35-.23-28.79,21.64-51.81,50.89-52.49,29.6-.69,52.48,22.33,53.27,50.89S487.77,1487.49,458.71,1488.35Z" transform="translate(-317.87 -993.43)"/><path class="cls-6" d="M2186.48,1718.77c-9.42,12.49-24.79,13.19-35,.08-3.79.6-5.46,3.48-6.56,6.76a16.14,16.14,0,0,0-.77,5q-.07,26.31,0,52.62c0,.64.38,1.28,1.05,3.39l23-35.65c-3.06-.29-5.08-.52-7.11-.67s-4.25-.24-7.13-.4c1-2.81,1.56-5.18,2.75-7.13a5.75,5.75,0,0,1,3.84-2.64c7.23-.26,14.48-.12,21.64-.12,1.53,6.06.67,10.65-2.39,15.29-12.05,18.29-23.82,36.78-35.69,55.19h-13.57a39.21,39.21,0,0,1-.54-4.47c0-24.85-.14-49.69,0-74.54.09-15.47,9.38-24.58,25.65-25.22,2,6.29,5.85,11,13.35,10.88,7-.14,11.18-4.08,12.85-10.5,11.64-1.81,25.16,7.32,25.55,22.25.22,8.28.1,16.56.11,24.84q0,24.48,0,49v7.65h-13.43c0-2.87,0-5.47,0-8.08,0-22.17,0-44.34,0-66.5a49.2,49.2,0,0,0-1-9.39C2192.43,1723,2190.7,1720.06,2186.48,1718.77Z" transform="translate(-317.87 -993.43)"/><path class="cls-6" d="M991.69,1810.62c-.14-3-.34-5.34-.34-7.72q0-30.7,0-61.39c0-1.7.09-3.41.12-5.11.18-12.62,6.57-21.28,17.75-26.18a50.58,50.58,0,0,1,41.86,0c11.27,4.92,17.62,13.85,17.75,26.26.26,23.63.07,47.26,0,70.89a17,17,0,0,1-.64,3.09h-13.1c0-3,0-5.61,0-8.22,0-20.71-.38-41.42.14-62.12.34-13.44-7.3-22.64-22-23.75a38.16,38.16,0,0,0-13.66,1.57c-8.13,2.47-13.79,8.34-14.1,16.87-.63,16.93-.19,33.9.54,51.16,8.11-11.11,15.53-22.51,23.51-35.21l-13.67-.76c-.35-3.81,2-6.4,3.29-9.55h24.56c1.61,6,.16,10.74-3,15.53-10.52,15.82-20.9,31.74-30.83,47.93-3.19,5.21-6.64,8-12.8,7A51.11,51.11,0,0,0,991.69,1810.62Z" transform="translate(-317.87 -993.43)"/><path class="cls-6" d="M2303.59,1737.37h-13c-.81-7.85,1.75-14.14,6.6-19.63a33.37,33.37,0,0,1,16.67-10,52,52,0,0,1,26.76-.17c14.88,3.77,23.77,14.79,24.27,30.81.41,13.15.47,26.33,0,39.47-.75,20.36-12.47,32.53-32.78,34.09a55.66,55.66,0,0,1-17.36-1.42c-13-3.21-21.76-11.65-23.54-25-1.56-11.72-1.09-23.71-1.54-36.16h37.41V1760h-22.6c-.62,8.47-1.25,16,.32,23.34,2.65,12.53,11.84,19.43,24.19,18.63s20.64-8.87,21.72-21.51c.54-6.3.31-12.66.32-19,0-8,.2-16.09-.15-24.12-.56-13-7.58-20.1-20.54-21.1-6.19-.47-12.18.36-17.55,3.79C2306.69,1723.94,2304.47,1730,2303.59,1737.37Z" transform="translate(-317.87 -993.43)"/><path class="cls-6" d="M1739.67,1737.48v-9.65a77.85,77.85,0,0,0,8.12-.05,52.54,52.54,0,0,0,10.72-1.86c5.34-1.76,8.3-5.73,8.55-11.51.09-2.13.28-4.26.45-6.76h11.77c3.82,12.63-.17,18.94-16.29,25.22,2.3,1,4.33,1.77,6.2,2.78,6.91,3.73,11.29,9.17,11.29,17.4,0,10.72.09,21.44-.05,32.17-.14,11.18-5.73,19-15.81,23.33a44.9,44.9,0,0,1-36.93-.19c-10.24-4.54-15.9-12.68-16-24.09-.15-14.13.07-28.27-.09-42.4-.08-6.76,3.2-12,7.51-17-15.47-2.6-15.58-2.65-20.5-10.05l7.4-7.74c9.3,8.23,19.65,8,28.8-.18l8.67,8.15c-3.15,3.11-5.92,6.11-9,8.8-6.4,5.66-9.69,12.45-9.43,21.2.34,11.69,0,23.39.11,35.09a55.24,55.24,0,0,0,.63,8,16.48,16.48,0,0,0,1.59,4.82c3.67,7.31,13.3,10.63,24.44,8.53,9.35-1.76,14.5-6.45,15-15.3.56-10.69.47-21.45.1-32.15-.26-7.42-5.76-12.86-14.08-14.68C1748.62,1738.39,1744.27,1738.1,1739.67,1737.48Z" transform="translate(-317.87 -993.43)"/><path class="cls-6" d="M1865.23,1707.61h12.7c.12,2.56.34,5.13.34,7.7q0,28.89,0,57.77c0,2.19,0,4.39.09,6.58.84,14.54,9.22,22.52,23.44,22.38,13.5-.13,23.19-9.24,23.39-22.89.31-21,.1-41.93.11-62.89,0-2.64,0-5.28,0-8.47h14.16c0,2.85,0,5.46,0,8.06,0,26.08.07,52.17-.05,78.25,0,5.73.18,11.19,6.32,16.63-5.95,0-10.21.53-14.28-.14-1.91-.31-3.85-2.62-5-4.5s-1.18-4.12-2-7.38c-5.36,8.13-12.73,11.84-21.49,13.13-16.68,2.46-32.09-6.2-36.69-21a35,35,0,0,1-1.53-10.05c-.13-22.91-.08-45.83-.05-68.74A39.07,39.07,0,0,1,1865.23,1707.61Z" transform="translate(-317.87 -993.43)"/><path class="cls-6" d="M2517.69,1732.94h-12.94a14.38,14.38,0,0,1-1.48-2.94c-3.4-13.19-23.56-19.28-35.5-7.8-7,6.68-6.44,17,1.85,21.86,5.56,3.24,12.15,4.75,18.34,6.84,5.06,1.71,10.41,2.69,15.29,4.79,10.75,4.63,17.16,12.66,17.2,24.81,0,12.58-5.07,22.38-16.83,27.55-14.16,6.22-28.54,5.85-42.35-1.15a26.13,26.13,0,0,1-14.62-27.29H2460c.47,1.94.94,4,1.45,6,2.28,9,8.85,14.52,18.81,15.83,9.54,1.25,19.42-3,23.54-10.09a17.42,17.42,0,0,0-6-23.73c-4.88-3-10.56-4.93-16.11-6.55-8-2.32-16.06-4.16-23-9-11.61-8.22-13.36-23.08-4-33.84a33.35,33.35,0,0,1,4.22-4c12.45-10.07,32.57-11.09,46-2.35C2512.24,1716.63,2516.58,1723.26,2517.69,1732.94Z" transform="translate(-317.87 -993.43)"/><path class="cls-6" d="M1151.41,1779.56h14.16l1.23,5.55c2,9.1,8.43,14.78,18.36,16.28s20-2.75,24.16-10.13a17.44,17.44,0,0,0-5.63-23.27c-4.81-3.09-10.55-4.79-16-6.8-6.37-2.36-13.24-3.65-19.24-6.69-17.81-9-19.27-28.82-3.39-40.88,12.6-9.57,32.19-10.35,45.42-1.66,7.28,4.78,11.75,11.35,12.47,20.8h-12.9a16.24,16.24,0,0,1-1.25-2.27,21.82,21.82,0,0,0-33-10.49c-10.18,7-9.75,19.88,1.26,25.37,5.37,2.68,11.49,3.84,17.25,5.74,5.53,1.83,11.29,3.2,16.5,5.7,9.54,4.57,14.85,12.36,15,23.19.19,11.28-3.55,20.94-13.78,26.41-15.73,8.4-31.89,8.19-47.37-.78C1155.3,1800.17,1151.43,1791.22,1151.41,1779.56Z" transform="translate(-317.87 -993.43)"/><path class="cls-6" d="M1323.47,1730.58l7.91,6.17c-2.56,3-5.81,5.53-7.2,8.84s-.95,7.16-1,10.8c-.08,15.35,0,30.7,0,46v8.07h-13.57c-.14-2.72-.36-5.09-.37-7.45,0-15.84.15-31.67-.09-47.51-.11-6.81,1.24-12.59,8.47-16.72l-9.8-7.34c.87-4.54,3.25-8.11,6.14-11.39,13.35-15.18,39.16-18.79,56.2-7.85,8.31,5.34,13.57,12.85,13.68,22.85.28,24.12.11,48.24.08,72.36a18.51,18.51,0,0,1-.56,3.06H1370.7c-.16-2.44-.46-5-.46-7.52,0-21.2-.1-42.39,0-63.59,0-8.15-2.67-14.76-9.54-19.39C1350.47,1713.11,1329.38,1715,1323.47,1730.58Z" transform="translate(-317.87 -993.43)"/><path class="cls-7" d="M594.21,1507.78c0,17-13.09,29.93-30.22,29.9a30.1,30.1,0,1,1,30.22-29.9Z" transform="translate(-317.87 -993.43)"/><path class="cls-6" d="M2026.81,1707.44h12.35c.06,10.29.13,20.41.16,30.53,0,10.48,0,21,0,31.45v30.79l10.19.66c-2.12,8.39-4.06,10-12.07,10h-10.08C2025.58,1805.62,2025.1,1717.24,2026.81,1707.44Z" transform="translate(-317.87 -993.43)"/><path class="cls-6" d="M1619.37,1800.36l10,.45c-1.75,8-4,10-11.17,10.07q-4.38,0-8.76,0a16.16,16.16,0,0,1-2.1-.3c-1.7-5-2.22-93.14-.53-102.87,1.75-.14,3.62-.34,5.5-.41s3.87,0,6.77,0c.59,8,.23,15.68.29,23.35s0,15.58,0,23.37v46.4Z" transform="translate(-317.87 -993.43)"/><path class="cls-6" d="M1728.13,1684.45c7.08.73,13-.54,17.8-6,9,8.71,20.5,5.71,32,6.85l-4.68,9.91c-9.69,0-19.42,2.6-27.16-5.62-9.54,8.69-20.81,5-32.56,6,.28-6.31.15-11.86.88-17.29a13.37,13.37,0,0,1,9-10.71,57.49,57.49,0,0,1,14.08-3c4.81-.5,9.72,0,14.59-.14,8.56-.18,9.77-1.17,12.13-10,1.91-.14,4-.39,6.12-.42,1.92,0,3.85.17,5.69.26,2.93,11.09-1.49,18-12.5,18.93-6.77.58-13.61.21-20.42.28a57,57,0,0,0-7.29.24C1729.76,1674.6,1728.12,1676.83,1728.13,1684.45Z" transform="translate(-317.87 -993.43)"/><path class="cls-6" d="M1240.36,1685.17v9.77h-57.2v-19.72h12.91l1,10Z" transform="translate(-317.87 -993.43)"/><path class="cls-6" d="M2523,1684.78c-3,0-5.12,0-7.28,0-10.29.11-10.92.59-13.58,10.39h-11.38c-3.6-11.9,1.13-19.31,13.12-20.35,5.08-.44,10.21-.26,15.31-.29a30.33,30.33,0,0,1,3.81.48Z" transform="translate(-317.87 -993.43)"/></svg>